<?xml version="1.0" encoding="UTF-8"?>
<svg xmlns="http://www.w3.org/2000/svg" xmlns:xlink="http://www.w3.org/1999/xlink" viewBox="0 0 844.09 647.28">
  <defs>
    <style>
      .cls-1 {
        fill: #55b709;
      }

      .cls-1, .cls-2, .cls-3, .cls-4, .cls-5, .cls-6, .cls-7 {
        stroke: #000;
        stroke-miterlimit: 10;
        stroke-width: 2px;
      }

      .cls-2 {
        mix-blend-mode: multiply;
        opacity: .42;
      }

      .cls-2, .cls-3 {
        fill: #a85619;
      }

      .cls-8 {
        fill: #000;
      }

      .cls-8, .cls-9, .cls-10, .cls-11, .cls-12, .cls-13, .cls-14, .cls-15 {
        stroke-width: 0px;
      }

      .cls-9 {
        fill: url(#Naamloos_verloop_48);
      }

      .cls-16 {
        isolation: isolate;
      }

      .cls-4 {
        fill: #7a3001;
      }

      .cls-10 {
        fill: #212121;
      }

      .cls-11 {
        fill: url(#Naamloos_verloop_50);
      }

      .cls-12 {
        fill: url(#Naamloos_verloop_41);
      }

      .cls-5 {
        fill: #2e7004;
      }

      .cls-13 {
        fill: #706f6f;
      }

      .cls-14 {
        fill: #c0c0bf;
      }

      .cls-6 {
        fill: #5ecc09;
      }

      .cls-7 {
        fill: #3a8708;
      }

      .cls-15 {
        fill: #215503;
      }
    </style>
    <linearGradient id="Naamloos_verloop_48" data-name="Naamloos verloop 48" x1="142.95" y1="690.12" x2="143.99" y2="312.76" gradientUnits="userSpaceOnUse">
      <stop offset=".16" stop-color="#603813"/>
      <stop offset=".27" stop-color="#924d17"/>
      <stop offset=".33" stop-color="#a85619"/>
      <stop offset=".44" stop-color="#3c7c35"/>
      <stop offset=".5" stop-color="#009245"/>
      <stop offset=".56" stop-color="#00c126"/>
      <stop offset=".63" stop-color="#00ed0a"/>
      <stop offset=".66" stop-color="lime"/>
      <stop offset=".73" stop-color="#6cf70e"/>
      <stop offset=".8" stop-color="#d3f01b"/>
      <stop offset=".83" stop-color="#fcee21"/>
    </linearGradient>
    <linearGradient id="Naamloos_verloop_41" data-name="Naamloos verloop 41" x1="361.64" y1="602.9" x2="362.08" y2="444.09" gradientUnits="userSpaceOnUse">
      <stop offset=".16" stop-color="#603813"/>
      <stop offset=".18" stop-color="#6c3d14"/>
      <stop offset=".24" stop-color="#8d4a16"/>
      <stop offset=".29" stop-color="#a05318"/>
      <stop offset=".33" stop-color="#a85619"/>
      <stop offset=".36" stop-color="#806423"/>
      <stop offset=".41" stop-color="#497731"/>
      <stop offset=".45" stop-color="#21863c"/>
      <stop offset=".48" stop-color="#098e42"/>
      <stop offset=".5" stop-color="#009245"/>
      <stop offset=".66" stop-color="lime"/>
      <stop offset=".67" stop-color="#0afe01"/>
      <stop offset=".7" stop-color="#27fc05"/>
      <stop offset=".73" stop-color="#56f90b"/>
      <stop offset=".77" stop-color="#96f413"/>
      <stop offset=".82" stop-color="#e8ef1e"/>
      <stop offset=".83" stop-color="#fcee21"/>
    </linearGradient>
    <linearGradient id="Naamloos_verloop_50" data-name="Naamloos verloop 50" x1="729.21" y1="606.63" x2="729.62" y2="455.71" gradientUnits="userSpaceOnUse">
      <stop offset=".16" stop-color="#603813"/>
      <stop offset=".18" stop-color="#6c3d14"/>
      <stop offset=".24" stop-color="#8d4a16"/>
      <stop offset=".29" stop-color="#a05318"/>
      <stop offset=".33" stop-color="#a85619"/>
      <stop offset=".45" stop-color="#328037"/>
      <stop offset=".5" stop-color="#009245"/>
      <stop offset=".66" stop-color="lime"/>
      <stop offset=".67" stop-color="#0afe01"/>
      <stop offset=".7" stop-color="#27fc05"/>
      <stop offset=".73" stop-color="#56f90b"/>
      <stop offset=".77" stop-color="#96f413"/>
      <stop offset=".82" stop-color="#e8ef1e"/>
      <stop offset=".83" stop-color="#fcee21"/>
    </linearGradient>
  </defs>
  <g class="cls-16">
    <g id="Laag_2" data-name="Laag 2">
      <g id="DESIGN">
        <g>
          <path class="cls-9" d="M52.6,644.28c-16.45,0-28.97-4.29-37.21-12.75-8.22-8.44-12.39-18.15-12.39-28.86,0-7.46,1.24-13.83,3.69-18.94,2.41-5.03,5.23-9.13,8.39-12.17,3.16-3.05,5.95-5.19,8.54-6.53l7.52-3.93.47,6.58c.18,1.33.58,3,1.17,4.94.56,1.87,1.5,3.78,2.78,5.68,1.2,1.78,2.9,3.32,5.07,4.6,2.08,1.23,4.85,1.85,8.21,1.85,5.82,0,11.11-3.15,16.19-9.63,5.45-6.96,10.73-16.11,15.69-27.2,5.03-11.26,10.11-23.59,15.09-36.65,5.73-15.19,11.88-29.94,18.25-43.84,6.47-14.11,13.77-26.01,21.7-35.38,8.35-9.86,18.13-14.86,29.06-14.86,5.03,0,10.06.58,14.94,1.74,4.96,1.18,9.03,2.72,12.1,4.58l3.47,2.1-3.03,2.7c-7.96,7.1-15.03,18.17-21.01,32.9-6.12,15.08-12.1,32.17-17.78,50.8-.21.66-.41,1.31-.62,1.96,4.3,1.34,9.31,2.01,14.94,2.01,10,0,19.74-2.54,28.96-7.55,9.18-5,16.8-12.4,22.62-22,5.82-9.58,8.76-21.47,8.76-35.32s-4.13-25.82-12.29-33.74c-8.39-8.15-18.78-13.93-30.89-17.2-12.36-3.33-24.33-5.02-35.57-5.02-24.91,0-46.39,7.26-63.86,21.57-17.28,14.17-26.05,31.32-26.05,50.99,0,6.57,1.51,11.14,4.49,13.6,3.15,2.6,6.11,3.92,8.8,3.92h3v3c0,7.09-3.52,14.43-10.47,21.81-6.99,7.43-15.19,11.2-24.35,11.2-23.5,0-36.28-14.8-37.98-44v-.18c0-23.27,7.55-43.65,22.46-60.57,14.71-16.71,33.14-29.81,54.78-38.94,21.59-9.11,43.14-13.73,64.06-13.73,30.68,0,56.68,5.15,77.27,15.32,20.66,10.2,36.41,23.52,46.81,39.59,10.43,16.11,15.71,33.3,15.71,51.1s-4.64,34.25-13.8,47.62c-9.08,13.26-20.6,23.68-34.24,30.96-13.65,7.29-27.52,10.99-41.23,10.99-12.37,0-23.26-1.74-32.35-5.17-7.46-2.81-14.01-6.24-19.53-10.22-5.56,16.38-12,31.91-19.19,46.23-7.88,15.7-17.58,28.72-28.82,38.68-11.53,10.21-25.77,15.38-42.33,15.38Z"/>
          <path class="cls-8" d="M144.3,366.79c30.36,0,55.68,5,75.94,15.01,20.26,10.01,35.47,22.85,45.62,38.53,10.15,15.69,15.23,32.18,15.23,49.47s-4.43,33.01-13.27,45.92c-8.85,12.92-19.91,22.92-33.18,30.01-13.27,7.09-26.54,10.63-39.82,10.63-12.07,0-22.5-1.66-31.29-4.98-8.8-3.32-16.16-7.44-22.1-12.37-5.83,17.8-12.62,34.41-20.36,49.85-7.74,15.44-17.12,28.03-28.13,37.78-11.01,9.75-24.46,14.63-40.34,14.63s-27.37-3.95-35.07-11.84c-7.69-7.89-11.54-16.82-11.54-26.77,0-7.04,1.13-12.92,3.39-17.65,2.26-4.72,4.85-8.5,7.77-11.31,2.92-2.81,5.53-4.83,7.84-6.03l3.47-1.81.15,2.11c.2,1.51.63,3.34,1.28,5.5.65,2.16,1.71,4.32,3.17,6.49,1.46,2.16,3.47,4,6.03,5.5,2.56,1.51,5.81,2.26,9.73,2.26,6.73,0,12.92-3.59,18.55-10.78,5.63-7.19,10.98-16.46,16.06-27.83,5.08-11.36,10.13-23.63,15.16-36.8,5.73-15.18,11.79-29.74,18.17-43.66,6.38-13.92,13.47-25.49,21.27-34.69,7.79-9.2,16.72-13.8,26.77-13.8,4.83,0,9.58.55,14.25,1.66,4.68,1.11,8.42,2.51,11.24,4.22-8.35,7.44-15.61,18.78-21.79,34.01-6.18,15.23-12.14,32.25-17.87,51.05-.5,1.61-1.01,3.17-1.51,4.68,5.23,2.11,11.46,3.17,18.7,3.17,10.56,0,20.69-2.64,30.39-7.92,9.7-5.28,17.62-12.97,23.75-23.08,6.13-10.1,9.2-22.4,9.2-36.88,0-15.38-4.4-27.35-13.2-35.89-8.8-8.54-19.53-14.53-32.2-17.95-12.67-3.42-24.79-5.13-36.35-5.13-25.74,0-47.66,7.42-65.76,22.25-18.1,14.83-27.15,32.6-27.15,53.31,0,7.54,1.86,12.85,5.58,15.91,3.72,3.07,7.29,4.6,10.71,4.6,0,6.33-3.22,12.92-9.65,19.76-6.44,6.84-13.83,10.26-22.17,10.26-21.72,0-33.38-13.72-34.99-41.17,0-22.62,7.24-42.15,21.72-58.59,14.48-16.44,32.37-29.16,53.69-38.16,21.31-9,42.28-13.5,62.89-13.5M144.3,360.79c-21.32,0-43.26,4.7-65.22,13.97-22.05,9.31-40.85,22.67-55.86,39.72C7.81,431.97,0,453.02,0,477.04v.35c2.28,38.7,23.55,46.82,40.99,46.82,10.03,0,18.96-4.09,26.54-12.14,7.49-7.95,11.28-15.99,11.28-23.87v-6h-6c-1.98,0-4.29-1.09-6.89-3.23-2.81-2.31-3.4-7.41-3.4-11.28,0-18.99,8.16-34.91,24.95-48.67,16.91-13.86,37.76-20.89,61.95-20.89,10.97,0,22.68,1.66,34.78,4.92,11.61,3.13,21.56,8.67,29.58,16.46,7.65,7.44,11.38,17.77,11.38,31.59s-2.8,24.65-8.33,33.76c-5.55,9.14-12.78,16.18-21.49,20.92-8.77,4.77-18.03,7.19-27.52,7.19-4.09,0-7.82-.37-11.14-1.11,5.57-18.18,11.41-34.82,17.38-49.53,5.81-14.3,12.61-25,20.23-31.79l6.06-5.4-6.94-4.21c-3.38-2.05-7.63-3.67-12.97-4.93-5.11-1.21-10.37-1.82-15.64-1.82-11.85,0-22.4,5.36-31.35,15.92-8.11,9.57-15.56,21.71-22.14,36.07-6.4,13.96-12.57,28.78-18.33,44.04-4.96,12.98-10.01,25.26-15.02,36.47-4.85,10.86-10.01,19.8-15.31,26.57-4.47,5.71-8.99,8.48-13.83,8.48-2.82,0-5.07-.48-6.69-1.43-1.8-1.06-3.14-2.27-4.1-3.68-1.12-1.66-1.93-3.29-2.4-4.87-.53-1.76-.89-3.23-1.06-4.4l-.14-1.91-.65-9.13-8.11,4.23-3.47,1.81c-2.84,1.48-5.87,3.78-9.23,7.03-3.42,3.3-6.45,7.69-9.01,13.04-2.64,5.52-3.98,12.33-3.98,20.24,0,11.53,4.45,21.94,13.24,30.96,8.83,9.06,22.07,13.65,39.36,13.65s32.23-5.43,44.32-16.14c11.53-10.22,21.46-23.53,29.51-39.58,6.7-13.36,12.76-27.75,18.07-42.9,4.98,3.18,10.64,5.98,16.91,8.34,9.43,3.56,20.68,5.36,33.41,5.36,14.21,0,28.55-3.82,42.64-11.34,14.07-7.51,25.95-18.25,35.3-31.91,9.5-13.88,14.32-30.47,14.32-49.32s-5.45-36.13-16.2-52.73c-10.7-16.53-26.85-30.21-48-40.65-21-10.37-47.45-15.63-78.59-15.63h0Z"/>
        </g>
        <g>
          <path class="cls-12" d="M372.58,602.76c-7.5,0-13.36-2.39-17.43-7.1-4.5-5.21-6.01-12.38-6.15-19.31-13.6,17.75-26.44,26.41-39.07,26.41-10.62,0-18.78-6.51-22.97-18.33-10.53-29.73,6.07-84.5,51.27-121.12,8.77-7.12,19.99-11.38,30.02-11.38,7.71,0,14.17,2.55,18.53,7.17.36-1.35.7-2.67.99-3.95l.51-2.21,2.27-.11c15.74-.75,28.62-3.44,35.36-7.39l2-1.17,8.83,8.83-.74,1.84c-1.87,4.63-4.36,10.5-7.24,17.3-8.26,19.48-20.75,48.92-32.72,82.97-2.46,6.68-2.15,9.12-1.96,9.78,1.06-.11,3.43-1.09,6.96-4.21,9.69-8.64,20.75-25.73,24.38-31.34l.73-1.13,1.33-.21c.43-.07.87-.1,1.31-.1,4.53,0,8.4,3.32,10.08,6.41l.79,1.45-.81,1.45c-16.7,29.86-41.75,65.45-66.28,65.45ZM374.68,473.41c-1.01,0-2.16.21-3.44.62-13.85,4.33-34.93,50.18-42.35,73.54-2.94,9.25-2.42,14.68-1.07,16.52.33.46.68.64,1.23.64h0c.84,0,5.48-.59,13.92-12.28,13.68-19.3,28.21-48.43,35.54-67.32,1.08-4.76.87-8.54-.6-10.4-.71-.9-1.77-1.33-3.23-1.33Z"/>
          <path class="cls-8" d="M427.43,448.03l5.79,5.79c-7.3,18.12-23.9,54.6-40.01,100.4-3.6,9.76-2.55,13.79.76,13.79,2.24,0,5.5-1.84,9.05-4.98,9.31-8.3,19.37-23.4,24.91-31.96.28-.04.57-.06.86-.06,3.01,0,6.07,2.32,7.45,4.84-8.3,14.85-36.74,63.91-63.66,63.91-18.87,0-22.39-16.61-19.88-33.72-13.08,19.37-27.43,33.72-42.78,33.72-35.23,0-33.47-82.53,30.2-134.12,8.33-6.77,18.88-10.71,28.13-10.71,8.64,0,16.15,3.43,19.68,11.21,1.01-3.52,2.01-7.05,2.77-10.32,15.85-.75,29.44-3.52,36.74-7.8M329.05,567.74c3.85,0,9.56-4.11,16.35-13.52,14.09-19.88,28.68-49.32,35.98-68.19,2.29-9.79-.42-15.62-6.7-15.62-1.31,0-2.76.25-4.37.77-16.1,5.03-37.49,54.1-44.29,75.49-4.12,12.94-2.39,21.07,3.02,21.07M428.4,440.51l-4,2.34c-6.24,3.66-18.95,6.27-33.99,6.98l-4.54.22-.84,3.63c-4.53-3.08-10.26-4.74-16.78-4.74-10.7,0-22.63,4.5-31.92,12.05-27.77,22.5-41.36,48.03-47.87,65.48-8.22,22.05-9.8,43.54-4.34,58.97,4.58,12.92,13.98,20.32,25.79,20.32s24.25-7.17,36.8-21.84c1.02,5.53,3.08,10.15,6.15,13.7,4.66,5.4,11.29,8.14,19.7,8.14,25.98,0,51.81-36.43,68.9-66.98l1.62-2.89-1.59-2.91c-2.56-4.69-7.79-7.97-12.71-7.97-.59,0-1.19.05-1.77.13l-2.66.41-1.46,2.26c-3.58,5.53-14.47,22.35-23.87,30.74-.46.41-.89.77-1.3,1.09.27-.94.63-2.05,1.11-3.34l.02-.04.02-.04c11.94-33.97,24.41-63.36,32.66-82.8,2.89-6.81,5.38-12.68,7.26-17.34l1.48-3.68-2.8-2.8-5.79-5.79-3.28-3.28h0ZM329.95,561.41c-.35-1.76-.44-5.87,1.8-12.92,3.3-10.39,10.22-27.69,18.24-42.9,12.75-24.19,20.15-28.07,22.12-28.68h.03s.03-.02.03-.02c1.22-.39,2.04-.48,2.52-.48.27,0,.74.03.88.2.49.61,1.1,2.99.07,7.66-7.28,18.72-21.61,47.41-35.11,66.46-5.45,7.54-9.01,9.93-10.58,10.68h0Z"/>
        </g>
        <g>
          <path class="cls-11" d="M775.67,606.76c-9.14,0-17.14-3.04-22.52-8.55-5.08-5.21-7.66-12.51-7.44-21.1.41-18.6,12.62-39.74,22.44-56.73,6.68-11.55,14.24-24.65,11.93-28.12-.04-.06-.09-.09-.09-.09h0s-.04,0-.12,0c-4.89,0-21.86,19.13-34.92,50.39-9.25,23.27-13.61,42.8-12.6,56.43l.24,3.22h-50.57l.07-3.07c.26-11.63,9.02-38.06,20.38-61.47,4.16-8.75,8.53-16.54,12.38-23.41,3.56-6.36,6.64-11.85,8.32-15.98,2-4.89,1.17-5.79,1.16-5.8-.13-.14-.25-.26-.68-.26-8.95,0-40.83,36.95-52.29,107.47l-.41,2.52h-53.01l1.73-4.16c35.21-84.36,42.46-103.45,46.48-132.77l.35-2.53,2.55-.06c19.51-.48,22.51-2.18,29.07-5.9l2.03-1.15,7.85,8.21-.09,1.33c-.27,3.71-1.14,8.75-2.68,15.46,4.54-5.25,10.5-10.61,20.58-17,7.55-4.84,15.67-7.51,22.85-7.51,6.31,0,11.56,2.01,15.21,5.83,2.47,2.59,4.1,5.94,4.84,9.89,3.31-2.77,7.09-5.45,11.55-8.23,7.74-4.95,16.27-7.68,23.99-7.68s13.69,2.5,17.95,7.22c4.69,5.21,6.66,12.88,5.68,22.19-1.83,17.4-13.1,37.59-23.04,55.41-5.93,10.62-11.53,20.66-13.33,27.3-.92,3.37-.77,6.3.39,7.82.53.69,1.22,1.02,2.12,1.02,1.11,0,2.41-.5,3.75-1.44,7.74-5.75,18.19-22.3,25.82-34.39,1.11-1.75,2.15-3.41,3.12-4.92l.73-1.14,1.34-.21c.42-.06.85-.1,1.28-.1,4.4,0,8.16,3.22,9.79,6.22l.79,1.45-.81,1.45c-1.05,1.87-2.17,3.95-3.39,6.19-7.98,14.72-20.04,36.96-35.91,48.7-6.88,5.11-15.96,8.05-24.89,8.05Z"/>
          <path class="cls-8" d="M804.25,458.93c12.75,0,22.52,8.18,20.65,26.1-2.9,27.58-31.45,64.34-36.28,82.24-2.13,7.81.82,12.63,5.41,12.63,1.66,0,3.54-.63,5.47-1.98,9.43-7.02,22.01-28.06,29.75-40.15.27-.04.55-.06.82-.06,2.9,0,5.83,2.23,7.16,4.66-7.98,14.27-20.8,40.88-38.46,53.94-6.5,4.83-14.98,7.46-23.11,7.46-14.25,0-27.43-8.09-26.96-26.57.73-33.14,41.12-75.71,33.86-86.6-.68-.98-1.6-1.44-2.71-1.44-7.95,0-25.8,23.79-37.69,52.24-7.98,20.08-14.03,41.6-12.82,57.81h-44.27c.24-10.64,8.47-36.28,20.08-60.23,12.09-25.4,26.37-43.54,21.29-48.62-.72-.76-1.67-1.14-2.8-1.14-11.8,0-43.99,40.7-55.25,109.99h-45.96c34.83-83.45,42.57-103.53,46.68-133.52,19.59-.48,23.22-2.18,30.48-6.29l5.32,5.56c-.48,6.77-3.14,17.9-6.29,29.51,7.02-9.92,11.61-17.42,28.78-28.3,7.24-4.64,14.77-7.04,21.25-7.04,10.39,0,18.05,6.17,17.45,19.14,3.87-3.87,8.71-7.74,15.72-12.09,7.4-4.73,15.36-7.23,22.4-7.23M700.71,451.87l-4.07,2.3c-6.3,3.57-8.91,5.05-27.67,5.51l-5.1.13-.69,5.06c-3.97,28.97-11.19,47.97-46.28,132.03l-3.47,8.31h60.07l.82-5.04c4.73-29.11,14.05-56.87,26.24-78.16,4.83-8.44,9.94-15.54,14.76-20.56,2.11-2.2,3.86-3.66,5.22-4.61-1.69,4.13-5.27,10.52-8.31,15.96-3.87,6.91-8.26,14.75-12.48,23.6-11.5,23.71-20.39,50.67-20.66,62.67l-.14,6.14h56.87l-.48-6.45c-.98-13.17,3.3-32.22,12.39-55.1,5.22-12.48,11.87-24.66,18.75-34.32,4.4-6.18,7.83-9.84,10.19-11.89-.38,1.13-.95,2.55-1.78,4.34-2.24,4.82-5.68,10.78-9.33,17.09-9.99,17.29-22.42,38.8-22.84,58.18-.24,9.4,2.63,17.44,8.29,23.25,5.95,6.1,14.71,9.46,24.67,9.46s19.29-3.15,26.69-8.65c16.39-12.12,28.64-34.72,36.75-49.67,1.2-2.22,2.34-4.31,3.37-6.16l1.62-2.89-1.59-2.91c-2.11-3.88-6.77-7.79-12.43-7.79-.58,0-1.17.04-1.74.13l-2.68.41-1.46,2.28c-.97,1.52-2.02,3.18-3.13,4.93-7.06,11.18-17.72,28.05-25.08,33.58-.91.63-1.52.79-1.8.84-.24-.54-.58-2.13.21-5.03,1.7-6.3,7.22-16.18,13.05-26.64,10.08-18.07,21.51-38.54,23.41-56.55,1.34-12.86-2.76-20.43-6.44-24.51-4.77-5.3-11.94-8.22-20.18-8.22s-17.37,2.9-25.6,8.16c-3.05,1.89-5.79,3.75-8.29,5.62-1.2-3.03-2.82-5.26-4.32-6.83-4.22-4.42-10.23-6.76-17.37-6.76-7.75,0-16.45,2.84-24.48,7.99-5.86,3.72-10.37,7.1-14.03,10.31.38-2.31.63-4.31.75-6.04l.19-2.65-1.84-1.92-5.32-5.56-3.23-3.38h0Z"/>
        </g>
        <g>
          <g>
            <path class="cls-3" d="M568.06,471.05c16.54-43.37,35.64-80.09,53.74-109.99,2.12-2.16,3.79-3.92,3.79-4.1l5.61,4.34c-2.25,1.55-4.09,7.03-5.51,9.31-2.13,3.4-2.01,7.88-4.67,10.7-.76.8-1.28,2.06-1.88,3.13-2.09,3.69-4.02,7.55-6.29,11.03-1.46,2.24-2.75,4.53-3.91,7.02-1.45,3.13-2.92,6.26-4.51,9.27-.8,1.5-2.05,2.62-2.82,4.13-.88,1.74-1.41,3.76-2.16,5.61-.99,2.45-2.13,4.81-3.06,7.3-1.28,3.44-3.83,5.77-4.82,9.5-.7,2.64-1.74,5.17-2.68,7.72-.71,1.93-1.46,3.84-2.27,5.71-.96,2.22-2.09,4.34-2.97,6.61-.65,1.68-.98,3.55-1.54,5.3-.79,2.49-1.63,4.97-2.52,7.42-.77,2.13-1.59,4.23-2.45,6.3-.55,1.33-1.42,2.52-1.79,3.9-1.03,3.88-1.84,7.83-2.79,11.73-.57,2.35-1.19,4.68-1.88,6.99-.37,1.25-.94,2.42-1.41,3.63-.94,2.42-2.24,4.67-2.45,7.45-.11,1.43-.27,2.87-.53,4.28-1.07,5.69-2.02,11.39-4.22,16.76-1.01,2.48-2.22,4.98-2.17,7.94.02,1.19-.4,2.45-.53,3.67-.33,3.18-.5,6.38-.93,9.55-.35,2.61-.97,5.19-1.48,7.78-.07.35-.16.71-.31,1.02-1.15,2.5-2.21,5.07-2.46,7.91-.16,1.83.07,3.67-.06,5.51-.29,4.22-.53,8.46-1.09,12.66-.52,3.88-1.36,7.75-2.23,11.58-.25,1.12-.98,2.55-1.72,2.99-1.42.85-3,1.32-4.51,1.53-1.51.21-3.04.07-4.52-.19-2.51-.45-5.01-.98-7.5-1.53,6.13-37.29,16.73-82.3,35.49-131.5Z"/>
            <path class="cls-2" d="M568.06,471.05c16.54-43.37,35.64-80.09,53.74-109.99,2.12-2.16,3.79-3.92,3.79-4.1l5.61,4.34c-2.25,1.55-4.09,7.03-5.51,9.31-2.13,3.4-2.01,7.88-4.67,10.7-.76.8-1.28,2.06-1.88,3.13-2.09,3.69-4.02,7.55-6.29,11.03-1.46,2.24-2.75,4.53-3.91,7.02-1.45,3.13-2.92,6.26-4.51,9.27-.8,1.5-2.05,2.62-2.82,4.13-.88,1.74-1.41,3.76-2.16,5.61-.99,2.45-2.13,4.81-3.06,7.3-1.28,3.44-3.83,5.77-4.82,9.5-.7,2.64-1.74,5.17-2.68,7.72-.71,1.93-1.46,3.84-2.27,5.71-.96,2.22-2.09,4.34-2.97,6.61-.65,1.68-.98,3.55-1.54,5.3-.79,2.49-1.63,4.97-2.52,7.42-.77,2.13-1.59,4.23-2.45,6.3-.55,1.33-1.42,2.52-1.79,3.9-1.03,3.88-1.84,7.83-2.79,11.73-.57,2.35-1.19,4.68-1.88,6.99-.37,1.25-.94,2.42-1.41,3.63-.94,2.42-2.24,4.67-2.45,7.45-.11,1.43-.27,2.87-.53,4.28-1.07,5.69-2.02,11.39-4.22,16.76-1.01,2.48-2.22,4.98-2.17,7.94.02,1.19-.4,2.45-.53,3.67-.33,3.18-.5,6.38-.93,9.55-.35,2.61-.97,5.19-1.48,7.78-.07.35-.16.71-.31,1.02-1.15,2.5-2.21,5.07-2.46,7.91-.16,1.83.07,3.67-.06,5.51-.29,4.22-.53,8.46-1.09,12.66-.52,3.88-1.36,7.75-2.23,11.58-.25,1.12-.98,2.55-1.72,2.99-1.42.85-3,1.32-4.51,1.53-1.51.21-3.04.07-4.52-.19-2.51-.45-5.01-.98-7.5-1.53,6.13-37.29,16.73-82.3,35.49-131.5Z"/>
            <path class="cls-3" d="M521.65,576.74c.74-2.27,1.52-4.52,2.36-6.74,1.07-2.82,2.22-5.59,3.31-8.4.4-1.02.4-1.93-.28-2.68-.92-1.02-1.13-2.39-.65-4.07.58-2.02,1.07-4.08,1.68-6.08.41-1.36.92-2.68,1.46-3.97,1.02-2.43,2.09-4.82,3.14-7.23,1.11-2.56,2.17-5.15,3.32-7.67.78-1.71,1.39-3.25.16-4.79-.26-.32-.3-1.26-.14-1.8.69-2.4,1.39-4.8,2.27-7.1,1.22-3.18,2.52-6.33,3.94-9.38,1.35-2.89,2.83-5.69,4.39-8.39.74-1.27.66-2.2.02-3.01-.56-.71-.51-1.49-.23-2.32.44-1.31.96-2.6,1.48-3.87.86-2.07,1.65-4.22,2.66-6.16,2.17-4.14,4.44-8.2,6.73-12.23.62-1.09.91-1.81.13-2.82-.41-.53-.61-1.47,0-2.47.58-.96.97-2.11,1.49-3.14,1.51-2.98,2.98-6.01,4.6-8.89,1.26-2.22,2.76-4.2,4.09-6.35.73-1.17,1.9-2.21,1.03-4.07-.23-.5.09-1.78.43-2.5,1.03-2.19,2.07-4.41,3.32-6.39,2.33-3.68,4.83-7.17,7.22-10.78.29-.43.36-1.15.46-1.75.19-1.09.1-2.34.53-3.24.88-1.87,1.93-3.64,3.06-5.27,2.01-2.9,4.11-5.71,6.23-8.46.91-1.18,1.77-2.22,1.33-3.98-.04-.18.17-.56.31-.78,1.26-1.94,2.46-3.97,3.81-5.79,2.01-2.71,4.15-5.25,6.2-7.91.35-.46.72-1.12.78-1.7.16-1.44.57-2.58,1.43-3.62,1.88-2.28,3.66-4.71,5.55-6.98,1.23-1.47,2.6-2.72,3.86-4.16.16-.18,5.06-5.03,8.66-8.71-18.1,29.9-37.2,66.62-53.74,109.99-18.76,49.19-29.36,94.21-35.49,131.5-.87-.19-1.74-.38-2.62-.57-.47-.1-.9-.38-1.35-.6-1.31-.66-2.62-1.33-3.93-1.99-2.07-1.05-4.19-2.02-5.78-4.07-.52-.67-.96-1.21-1.53-1.4l1.12-7.76c1.18-3.16,2.13-6.3,3.15-9.42Z"/>
          </g>
          <g>
            <path class="cls-1" d="M643.1,416.39c-.86-24.57-12.44-42.28-20.27-51.52,29.57,16.67,34.48,51.62,34.48,51.62l-8.48,2.63,8.81,3.95c-8.62,49.72-37.77,50.35-38.53,50.36,10.05-7.9,25.29-19.93,23.99-57.03Z"/>
            <path class="cls-5" d="M643.1,416.39c1.3,37.1-13.93,49.13-23.99,57.03,0,0-.02,0-.02,0,16.35-17.49,8.63-65.62,8.63-65.62l7.72-4.61-8.79-3.63c2.1-24.19-4.8-35.23-4.8-35.23.33.18.65.36.97.54,7.83,9.25,19.42,26.95,20.27,51.52Z"/>
          </g>
          <g>
            <path class="cls-1" d="M687.87,398.78c-20.68-21.65-53.88-30.6-65.98-33.3-.08-.03-.16-.06-.24-.09,0,0,33.15-.73,65.03,19.49l-2.33,4.59,7.42-.81s33.83,25.28,24.43,71.39c-.85-8.76-4.74-36.56-28.33-61.26Z"/>
            <path class="cls-5" d="M687.87,398.78c23.59,24.7,27.48,52.49,28.33,61.26,0,0,0,0,0,0,0,0-25.3-68.29-94.31-94.57,12.09,2.71,45.3,11.65,65.98,33.3Z"/>
          </g>
          <g>
            <path class="cls-1" d="M700.83,364.79c-34.72-15.47-72.01.2-79.28,3.28,1.84-1.67,43.27-38.42,94.03-9.7,0,0,32.32,16.87,35.03,61.47-1.86-5.81-13.43-38.85-49.78-55.05Z"/>
            <path class="cls-5" d="M700.83,364.79c36.35,16.2,47.93,49.23,49.78,55.05,0,.01,0,.02,0,.03,0,0-12.44-24.01-45.83-36.82l-5.77-11.64-1.98,8.2s-41.25-19.95-75.54-11.48c0,0,.02-.02.06-.06,7.27-3.08,44.55-18.76,79.28-3.28Z"/>
          </g>
          <g>
            <path class="cls-5" d="M683.44,323.1c35.71-11.38,66.67-4.23,78.06-1.03-.22,0-47.73-1.88-66.66,12.5l-3.93-6.18-3.18,8.16-66.12,31.23s0,0,0-.01c7.68-8.88,30.75-34.77,61.83-44.67Z"/>
            <path class="cls-1" d="M683.44,323.1c-31.08,9.9-54.14,35.8-61.83,44.67.7-1.11,55.42-87.7,139.89-45.7,0,0,0,0,0,0-11.4-3.2-42.36-10.35-78.06,1.03Z"/>
          </g>
          <g>
            <path class="cls-1" d="M571.68,387.16c18.26-16.77,39.18-21.23,51.36-22.32-32.89-8.79-61.48,12.5-61.48,12.5l4.11,7.76-9.07-3.34c-29.64,41.15-9.48,61.88-8.95,62.41-1.43-12.58-3.55-31.69,24.03-57.02Z"/>
            <path class="cls-5" d="M571.68,387.16c-27.58,25.33-25.46,44.44-24.03,57.02,0,0,.01.01.01.01,1.02-23.74,41.06-52.4,41.06-52.4l-2.15-8.63,8.83,3.55c15.9-18.56,28.71-21.58,28.71-21.58-.36-.1-.72-.2-1.08-.29-12.18,1.09-33.1,5.55-51.36,22.32Z"/>
          </g>
          <g>
            <path class="cls-1" d="M552.68,343.56c30.18-.92,60.09,15.86,70.59,22.36.08.03.16.07.24.1,0,0-22.91-23.58-59.99-31.47l-1.65,4.86-4.66-5.73s-42.09-5.66-68.59,33.48c6.9-5.61,29.62-22.55,64.06-23.6Z"/>
            <path class="cls-5" d="M552.68,343.56c-34.43,1.05-57.16,17.99-64.06,23.6,0,0,0,0,0,0,0,0,66.97-30.69,134.65-1.25-10.5-6.5-40.4-23.28-70.59-22.36Z"/>
          </g>
          <g>
            <path class="cls-1" d="M567.95,310.51c35.67,13.22,50.77,50.24,53.7,57.48-.1-2.47-2.99-57.28-59.51-72.28,0,0-34.98-10.56-68.95,19.09,5.49-2.82,37.42-18.12,74.76-4.28Z"/>
            <path class="cls-5" d="M567.95,310.51c-37.34-13.84-69.27,1.47-74.76,4.28,0,0-.02.01-.03.02,0,0,26.05-8.32,58.87,5.85l12.45-4.21-4.49,7.18s43.51,14.59,61.66,44.44c0,0,0-.03,0-.09-2.92-7.23-18.02-44.26-53.7-57.48Z"/>
          </g>
          <g>
            <path class="cls-5" d="M610.2,293.13c-17.07-32.89-44.1-49.38-54.46-55.04.16.15,35.1,31.88,38.15,55.22l7.22-1.64-3.61,7.99,24.31,68.09s0,0,0-.01c.95-11.62,3.25-45.98-11.61-74.6Z"/>
            <path class="cls-1" d="M610.2,293.13c14.86,28.62,12.55,62.98,11.61,74.6.3-1.27,23.84-100.57-66.07-129.65,0,0,0,0,0,0,10.36,5.66,37.39,22.15,54.46,55.04Z"/>
          </g>
          <g>
            <path class="cls-5" d="M666.38,239.12c.24.54,10.6,24.38,1.07,58.76l-7.68-.07,6.25,7.03s-9.29,35.05-43.21,62.35c9.09-16.28,18.51-35.99,26.56-58.99,9.02-25.78,14.1-49.34,17.01-69.08Z"/>
            <path class="cls-1" d="M637.96,299.12l8.22.07-5.74-6.44s7.98-33.88,25.92-53.64c0,0,0,0,0,.01-2.91,19.73-7.99,43.3-17.01,69.08-8.05,23-17.47,42.71-26.56,58.99-.4.32-.8.65-1.21.97,0,0,3.22-49.23,16.37-69.03Z"/>
          </g>
          <path class="cls-4" d="M614.95,391.4c-.34-1.27-1.11-2.44-2.1-3.4-.99-.96-2.21-1.73-3.54-2.21-1.33-.49-2.75-.7-4.14-.61-1.38.09-2.74.45-3.85,1.17,1.35-.07,2.61-.06,3.85.1,1.24.15,2.43.43,3.57.85,1.14.42,2.23.98,3.26,1.66,1.03.69,1.99,1.5,2.94,2.45Z"/>
          <path class="cls-4" d="M604.82,410.3c-.34-1.27-1.11-2.44-2.1-3.4-.99-.96-2.21-1.73-3.54-2.21-1.33-.49-2.75-.7-4.14-.61-1.38.09-2.74.45-3.85,1.17,1.35-.07,2.61-.06,3.85.1,1.24.15,2.43.43,3.57.85,1.14.42,2.23.98,3.26,1.66,1.03.69,1.99,1.5,2.94,2.45Z"/>
          <path class="cls-4" d="M595.87,427.69c-.34-1.27-1.11-2.44-2.1-3.4-.99-.96-2.21-1.73-3.54-2.21-1.33-.49-2.75-.7-4.14-.61-1.38.09-2.74.45-3.85,1.17,1.35-.07,2.61-.06,3.85.1,1.24.15,2.43.43,3.57.85,1.14.42,2.23.98,3.26,1.66,1.03.69,1.99,1.5,2.94,2.45Z"/>
          <path class="cls-4" d="M584.83,451c-.44-1.34-1.34-2.54-2.44-3.52-1.1-.98-2.42-1.74-3.84-2.24-1.42-.49-2.92-.72-4.4-.66-1.47.06-2.93.4-4.16,1.11,1.44-.05,2.8-.02,4.14.16,1.33.17,2.63.47,3.88.9,1.24.43,2.44,1,3.58,1.71,1.14.7,2.2,1.54,3.24,2.53Z"/>
          <path class="cls-4" d="M575.71,476.26c-.68-1.47-1.84-2.73-3.16-3.74-1.34-1.01-2.87-1.79-4.48-2.31-1.61-.52-3.3-.77-4.98-.76-1.67.02-3.34.3-4.82.97,1.65,0,3.22.08,4.77.29,1.55.21,3.06.55,4.53,1.02,1.47.47,2.89,1.07,4.25,1.82,1.36.75,2.65,1.63,3.89,2.7Z"/>
          <path class="cls-4" d="M566.72,505.99c-.72-1.66-1.96-3.12-3.37-4.33-1.43-1.22-3.06-2.2-4.79-2.95-1.74-.74-3.58-1.24-5.44-1.48-1.86-.23-3.76-.22-5.55.22,1.84.24,3.6.57,5.32,1.03,1.72.45,3.4,1.02,5.01,1.71,1.61.69,3.17,1.51,4.65,2.47,1.48.96,2.87,2.05,4.17,3.34Z"/>
          <path class="cls-4" d="M559.19,534.61c-.72-1.66-1.96-3.12-3.37-4.33-1.43-1.22-3.06-2.2-4.79-2.95-1.74-.74-3.58-1.24-5.44-1.48-1.86-.23-3.76-.22-5.55.22,1.84.24,3.6.57,5.32,1.03,1.72.45,3.4,1.02,5.01,1.71,1.61.69,3.17,1.51,4.65,2.47,1.48.96,2.87,2.05,4.17,3.35Z"/>
          <path class="cls-4" d="M553.99,569.42c-1.08-2.1-2.77-3.94-4.73-5.41-1.97-1.47-4.23-2.59-6.62-3.29-2.39-.7-4.89-.97-7.34-.81-2.44.16-4.86.73-6.96,1.82,2.35-.45,4.69-.64,7.01-.55,2.32.09,4.62.45,6.84,1.09,2.21.64,4.34,1.57,6.33,2.77,1.99,1.19,3.82,2.65,5.47,4.38Z"/>
        </g>
        <g>
          <g>
            <path class="cls-3" d="M487.82,386.26c-12.25-71.01-29.9-132.63-47.88-183.54-2.46-3.92-4.38-7.1-4.32-7.36l-9.12,4.97c2.8,3.03,3.99,11.92,5.43,15.81,2.14,5.81.81,12.61,3.87,17.69.87,1.45,1.28,3.51,1.87,5.32,2.01,6.24,3.75,12.7,6.08,18.67,1.5,3.84,2.74,7.72,3.74,11.86,1.25,5.2,2.52,10.41,4.01,15.47.74,2.53,2.24,4.59,2.94,7.13.8,2.91,1.03,6.15,1.62,9.2.77,4.03,1.78,7.97,2.45,12.03.93,5.62,3.95,9.92,4.38,15.91.3,4.23,1.13,8.4,1.81,12.57.51,3.15,1.08,6.28,1.74,9.37.79,3.68,1.84,7.24,2.51,10.96.49,2.76.47,5.7.81,8.53.48,4.04,1.03,8.06,1.65,12.06.54,3.47,1.17,6.92,1.85,10.33.44,2.19,1.37,4.26,1.53,6.47.45,6.22.58,12.48.92,18.72.2,3.74.47,7.49.85,11.21.21,2.02.71,3.97,1.07,5.96.71,3.97,1.97,7.78,1.55,12.08-.22,2.21-.36,4.45-.35,6.68.04,8.99-.08,17.96,1.64,26.8.8,4.08,1.87,8.25,1.02,12.75-.34,1.8-.07,3.85-.21,5.76-.36,4.95-.95,9.88-1.17,14.84-.18,4.08.03,8.2.08,12.3,0,.55.05,1.13.17,1.65.99,4.15,1.82,8.38,1.44,12.79-.25,2.85-1.05,5.58-1.35,8.42-.69,6.52-1.45,13.06-1.74,19.63-.27,6.08-.09,12.22.16,18.32.07,1.78.74,4.18,1.67,5.07,1.8,1.72,3.92,2.9,6.02,3.66,2.09.77,4.31,1,6.48,1.04,3.69.05,7.39-.03,11.08-.13.98-58.68-2.4-130.45-16.3-211Z"/>
            <path class="cls-2" d="M487.82,386.26c-12.25-71.01-29.9-132.63-47.88-183.54-2.46-3.92-4.38-7.1-4.32-7.36l-9.12,4.97c2.8,3.03,3.99,11.92,5.43,15.81,2.14,5.81.81,12.61,3.87,17.69.87,1.45,1.28,3.51,1.87,5.32,2.01,6.24,3.75,12.7,6.08,18.67,1.5,3.84,2.74,7.72,3.74,11.86,1.25,5.2,2.52,10.41,4.01,15.47.74,2.53,2.24,4.59,2.94,7.13.8,2.91,1.03,6.15,1.62,9.2.77,4.03,1.78,7.97,2.45,12.03.93,5.62,3.95,9.92,4.38,15.91.3,4.23,1.13,8.4,1.81,12.57.51,3.15,1.08,6.28,1.74,9.37.79,3.68,1.84,7.24,2.51,10.96.49,2.76.47,5.7.81,8.53.48,4.04,1.03,8.06,1.65,12.06.54,3.47,1.17,6.92,1.85,10.33.44,2.19,1.37,4.26,1.53,6.47.45,6.22.58,12.48.92,18.72.2,3.74.47,7.49.85,11.21.21,2.02.71,3.97,1.07,5.96.71,3.97,1.97,7.78,1.55,12.08-.22,2.21-.36,4.45-.35,6.68.04,8.99-.08,17.96,1.64,26.8.8,4.08,1.87,8.25,1.02,12.75-.34,1.8-.07,3.85-.21,5.76-.36,4.95-.95,9.88-1.17,14.84-.18,4.08.03,8.2.08,12.3,0,.55.05,1.13.17,1.65.99,4.15,1.82,8.38,1.44,12.79-.25,2.85-1.05,5.58-1.35,8.42-.69,6.52-1.45,13.06-1.74,19.63-.27,6.08-.09,12.22.16,18.32.07,1.78.74,4.18,1.67,5.07,1.8,1.72,3.92,2.9,6.02,3.66,2.09.77,4.31,1,6.48,1.04,3.69.05,7.39-.03,11.08-.13.98-58.68-2.4-130.45-16.3-211Z"/>
            <path class="cls-3" d="M526.39,561.08c-.46-3.67-.99-7.34-1.6-10.97-.78-4.62-1.71-9.18-2.53-13.79-.3-1.67-.07-3.07,1.09-4.01,1.58-1.28,2.24-3.32,1.99-6.02-.3-3.25-.46-6.53-.8-9.77-.23-2.19-.61-4.36-1.04-6.49-.82-4-1.73-7.96-2.59-11.94-.91-4.23-1.75-8.49-2.73-12.68-.67-2.84-1.14-5.36,1.02-7.36.45-.42.75-1.84.67-2.71-.36-3.86-.73-7.74-1.38-11.5-.91-5.21-1.94-10.4-3.17-15.47-1.17-4.8-2.55-9.5-4.07-14.09-.72-2.16-.36-3.55.76-4.6.98-.92,1.11-2.13.93-3.47-.28-2.13-.68-4.24-1.11-6.33-.69-3.41-1.25-6.92-2.19-10.18-2.01-6.95-4.18-13.8-6.4-20.63-.6-1.84-.82-3.03.55-4.35.72-.69,1.25-2.06.65-3.76-.58-1.64-.82-3.51-1.3-5.23-1.38-4.99-2.67-10.05-4.24-14.91-1.21-3.75-2.84-7.22-4.17-10.89-.73-2-2.14-3.93-.41-6.51.46-.69.33-2.74.04-3.93-.89-3.64-1.8-7.34-3.07-10.72-2.36-6.29-5.01-12.35-7.47-18.57-.3-.75-.21-1.86-.21-2.8.02-1.71.46-3.61.09-5.09-.76-3.1-1.79-6.13-2.98-8.94-2.11-5.02-4.37-9.91-6.67-14.74-.98-2.06-1.94-3.9-.86-6.47.11-.26-.09-.9-.24-1.28-1.29-3.33-2.47-6.77-3.92-9.95-2.16-4.72-4.54-9.23-6.77-13.89-.38-.8-.73-1.92-.67-2.83.15-2.24-.13-4.1-1.09-5.94-2.09-4.02-3.98-8.26-6.08-12.27-1.37-2.61-2.99-4.92-4.41-7.47-.18-.33-5.9-9.15-10.07-15.82,17.99,50.92,35.63,112.54,47.88,183.54,13.9,80.55,17.27,152.31,16.3,211,1.29-.03,2.58-.07,3.87-.1.69-.02,1.39-.32,2.07-.52,2.04-.62,4.07-1.26,6.11-1.89,3.22-.99,6.5-1.85,9.29-4.51.92-.87,1.68-1.56,2.54-1.69l.43-12.17c-.85-5.16-1.4-10.24-2.04-15.3Z"/>
          </g>
          <g>
            <path class="cls-6" d="M395.21,280.86c7.62-37.22,28.73-60.84,42.28-72.64-46.45,16.76-62.54,68.62-62.54,68.62l11.39,6.5-13.57,3.44c-.67,78.37,40.66,87.89,41.75,88.12-12.26-15-30.81-37.83-19.31-94.03Z"/>
            <path class="cls-7" d="M395.21,280.86c-11.51,56.21,7.05,79.04,19.31,94.03.01,0,.02,0,.02,0-18.72-31.48,4.8-102.63,4.8-102.63l-9.79-9.29,13.47-2.96c3.31-37.51,16-52.34,16-52.34-.51.17-1.02.36-1.53.54-13.56,11.81-34.66,35.42-42.28,72.64Z"/>
          </g>
          <g>
            <path class="cls-6" d="M336.04,240.87c35.08-26.96,84.69-30.86,102.62-31.44.12-.02.25-.05.37-.07,0,0-47.01-10.84-97.67,10.64l2.12,7.68-10.35-3.41s-54.76,28.64-53.38,101.73c3.49-13.12,16.27-54.37,56.29-85.13Z"/>
            <path class="cls-7" d="M336.04,240.87c-40.02,30.76-52.8,72.01-56.29,85.13,0,0,0,0,0,.01,0,0,53.8-96.75,158.91-116.58-17.92.58-67.54,4.48-102.62,31.44Z"/>
          </g>
          <g>
            <path class="cls-6" d="M326.45,185.21c53.47-13.42,102.48,21.43,112.03,28.27-2.19-3.09-51.61-71.3-131.36-42.39,0,0-50.41,16.24-65.88,83.48,4.16-8.32,29.24-55.31,85.22-69.36Z"/>
            <path class="cls-7" d="M326.45,185.21c-55.98,14.04-81.06,61.04-85.22,69.36,0,.02,0,.03-.01.05,0,0,23.96-32.97,74.85-42.72l11.25-16.06.69,13.09s63.93-18.33,110.55,4.66c0,0-.03-.04-.08-.11-9.54-6.83-58.55-41.68-112.03-28.27Z"/>
          </g>
          <g>
            <path class="cls-7" d="M362.06,126.72c-47.88-27.83-93.83-26.02-110.89-24.48.32.05,68.46,11.14,91.67,38.63l7.2-8.27,2.41,13.38,86.02,67.04s0-.01,0-.02c-8.63-15.79-34.73-62.06-76.4-86.29Z"/>
            <path class="cls-6" d="M362.06,126.72c41.67,24.22,67.77,70.49,76.4,86.29-.7-1.89-56.08-150.04-187.29-110.76,0,0,0,0,0,0,17.06-1.54,63-3.36,110.89,24.48Z"/>
          </g>
          <g>
            <path class="cls-6" d="M504.52,257.23c-21.64-30.94-50.26-43.89-67.32-49.12,49.12-3.75,84.28,37.11,84.28,37.11l-7.87,10.63,13.78-2.43c31.49,71.47-2.61,97.17-3.5,97.83,5.32-18.77,13.31-47.29-19.37-94.02Z"/>
            <path class="cls-7" d="M504.52,257.23c32.67,46.73,24.68,75.25,19.37,94.02-.01,0-.02.01-.02.01,4.74-36.51-44.82-91.98-44.82-91.98l5.3-12.53-13.49,2.83c-17.81-32.98-35.27-41.34-35.27-41.34.54-.05,1.07-.09,1.61-.13,17.06,5.24,45.69,18.18,67.32,49.12Z"/>
          </g>
          <g>
            <path class="cls-6" d="M542.93,196.3c-42.73-10.26-89.69,6.56-106.33,13.39-.12.03-.25.06-.37.09,0,0,38.76-29.25,93.61-30.4l1.08,7.9,8.13-7.38s61.41,3.71,88.94,71.19c-8.36-10.57-36.31-43.09-85.07-54.8Z"/>
            <path class="cls-7" d="M542.93,196.3c48.76,11.71,76.71,44.22,85.07,54.8,0,0,0,0,0,.01,0,0-87.36-66.46-191.4-41.41,16.64-6.84,63.59-23.66,106.33-13.39Z"/>
          </g>
          <g>
            <path class="cls-6" d="M529.79,141.41c-54.24,9.7-85.38,61.74-91.42,71.92.79-3.73,19.16-86.49,103.56-92.8,0,0,52.55-5.85,93.2,49.35-7.09-5.91-48.56-38.62-105.34-28.47Z"/>
            <path class="cls-7" d="M529.79,141.41c56.78-10.15,98.25,22.56,105.34,28.47.01.01.02.03.03.04,0,0-34.93-20.34-85.35-8.35l-16.62-10.08,4.52,12.26s-65.75,9.49-99.37,49.7c0,0,0-.05.03-.13,6.05-10.18,37.19-62.23,91.42-71.92Z"/>
          </g>
          <g>
            <path class="cls-7" d="M474.15,102.49c32.87-45.16,75.65-62.38,91.87-67.98-.27.18-58.28,38.33-68.7,73.04l-9.85-4.61,3.07,13.24-52.34,96.73s0-.01,0-.02c1.68-18.01,7.35-71.09,35.96-110.39Z"/>
            <path class="cls-6" d="M474.15,102.49c-28.61,39.3-34.28,92.39-35.96,110.39-.1-2.02-7.76-160.4,127.83-178.38,0,0,0,0,0,0-16.23,5.6-59,22.82-91.87,67.98Z"/>
          </g>
          <g>
            <path class="cls-7" d="M408.22,3.62c-.48.75-21.44,34.08-16.82,89.32l10.95,2.15-10.73,8.88s4.1,56.18,45.29,107.78c-8.7-27.5-16.98-60.33-22.46-97.77-6.13-41.97-7.23-79.41-6.23-110.36Z"/>
            <path class="cls-6" d="M433.06,103.48l-11.72-2.3,9.85-8.14s-2.54-54.02-22.95-89.44c0,0,0,0-.01.02-1,30.95.1,68.39,6.23,110.36,5.47,37.45,13.75,70.27,22.46,97.77.49.61.98,1.22,1.48,1.83,0,0,8.23-76.03-5.33-110.11Z"/>
          </g>
          <path class="cls-4" d="M441.8,251c.81-1.84,2.22-3.4,3.87-4.58,1.66-1.18,3.59-1.99,5.61-2.34,2.02-.36,4.1-.25,6.05.28,1.94.54,3.78,1.49,5.18,2.92-1.9-.51-3.71-.85-5.51-.98-1.8-.13-3.58-.05-5.31.25-1.73.3-3.43.83-5.07,1.58-1.65.74-3.23,1.7-4.82,2.87Z"/>
          <path class="cls-4" d="M451.29,282.8c.81-1.84,2.22-3.4,3.87-4.58,1.66-1.18,3.59-1.99,5.61-2.34,2.02-.36,4.1-.25,6.05.28,1.94.54,3.78,1.49,5.18,2.92-1.9-.51-3.71-.85-5.51-.98-1.8-.13-3.58-.05-5.31.25-1.73.3-3.43.83-5.07,1.58-1.65.74-3.23,1.7-4.82,2.87Z"/>
          <path class="cls-4" d="M459.52,311.95c.81-1.84,2.22-3.4,3.87-4.58,1.66-1.18,3.59-1.99,5.61-2.34,2.02-.36,4.1-.25,6.05.28,1.94.54,3.78,1.49,5.18,2.92-1.9-.51-3.71-.85-5.51-.98-1.8-.13-3.58-.05-5.31.25-1.73.3-3.43.83-5.07,1.58-1.65.74-3.23,1.7-4.82,2.87Z"/>
          <path class="cls-4" d="M469.17,350.76c.98-1.91,2.57-3.48,4.39-4.65,1.82-1.17,3.9-1.95,6.05-2.29,2.15-.34,4.35-.23,6.43.29,2.08.53,4.06,1.48,5.64,2.91-2.04-.51-3.99-.85-5.94-.97-1.95-.13-3.87-.05-5.76.24-1.88.3-3.74.82-5.54,1.56-1.81.74-3.54,1.7-5.27,2.91Z"/>
          <path class="cls-4" d="M475.57,391.96c1.35-2.04,3.33-3.62,5.48-4.78,2.17-1.16,4.55-1.89,6.98-2.21,2.43-.31,4.91-.21,7.28.31,2.37.52,4.68,1.44,6.61,2.9-2.34-.5-4.6-.83-6.87-.95-2.26-.13-4.51-.06-6.72.22-2.21.28-4.4.79-6.53,1.53-2.14.74-4.2,1.71-6.24,2.98Z"/>
          <path class="cls-4" d="M480.64,439.95c1.45-2.33,3.6-4.18,5.93-5.62,2.35-1.44,4.93-2.46,7.59-3.09,2.67-.62,5.41-.85,8.13-.67,2.71.19,5.41.77,7.84,1.96-2.68-.17-5.27-.18-7.84,0-2.57.19-5.1.56-7.58,1.14-2.48.58-4.91,1.37-7.26,2.4-2.36,1.03-4.62,2.28-6.8,3.88Z"/>
          <path class="cls-4" d="M483.9,485.81c1.45-2.33,3.6-4.18,5.93-5.62,2.35-1.44,4.93-2.46,7.59-3.09,2.67-.62,5.41-.85,8.13-.67,2.71.19,5.41.77,7.84,1.96-2.68-.17-5.27-.18-7.84,0-2.57.19-5.1.56-7.58,1.14-2.48.58-4.91,1.37-7.26,2.4-2.36,1.03-4.62,2.28-6.8,3.88Z"/>
          <path class="cls-4" d="M482.24,540.44c2.08-2.89,4.96-5.19,8.14-6.86,3.18-1.67,6.7-2.71,10.28-3.07,3.58-.36,7.22-.04,10.66.91,3.44.96,6.72,2.54,9.44,4.82-3.23-1.37-6.51-2.35-9.84-2.9-3.33-.55-6.7-.67-10.02-.35-3.32.33-6.59,1.13-9.73,2.37-3.14,1.24-6.13,2.93-8.93,5.08Z"/>
        </g>
        <g>
          <path class="cls-15" d="M545.17,592.95s9.94-16.7,28.51-23.65c18.57-6.96,25.2-10.67,25.2-10.67,0,0-25.2,12.52-33.83,19.02-8.62,6.49-19.89,15.31-19.89,15.31Z"/>
          <path class="cls-15" d="M549.87,597.06c-.7-1.5.66-18.09-10.61-29.22-11.27-11.13-18.56-17.62-18.56-17.62,0,0,19.33,26.72,21.93,31.68,2.6,4.96,7.24,15.16,7.24,15.16Z"/>
          <path class="cls-15" d="M539.03,588.72s-10.14-17.54-21.12-23.17c-10.97-5.63-16.64-9.12-16.64-9.12,0,0,23.3,16.27,27.89,23.21,4.58,6.95,9.87,9.08,9.87,9.08Z"/>
          <path class="cls-15" d="M592.56,586.71s-2-12.99-15.92-19.95c-13.93-6.96-17.91-10.67-17.91-10.67,0,0,16.34,14.18,20.77,18.69,4.43,4.5,13.06,11.92,13.06,11.92Z"/>
          <path class="cls-15" d="M558.07,593.2c-.37-1.76,8.46-15.45,15.25-21.8,6.8-6.35,14.6-14.38,14.6-14.38,0,0-13,17.62-17.36,24.79,1.89,6.01-12.49,11.39-12.49,11.39Z"/>
          <path class="cls-15" d="M520.46,585.23s12.41-12.44,22.35-20.32c9.94-7.89,21.22-17.16,21.22-17.16,0,0-28.88,27.55-34,31.86-5.12,4.31-8.44,7.56-8.44,7.56l-1.13-1.94Z"/>
          <path class="cls-15" d="M492.95,588.48c-.54-1.31-13.14-11.51-2.53-24.96,10.61-13.45,14.59-20.41,14.59-20.41,0,0-8.71,22.58-11.94,26.9-3.22,4.32-.13,18.47-.13,18.47Z"/>
          <path class="cls-15" d="M489.76,593.67s-.07-.28-.23-.79c-1.13-3.55-6.64-18.17-22.31-24.25-17.91-6.96-25.86-9.74-25.86-9.74,0,0,29.18,16.23,33.82,20.41,4.64,4.18,14.59,14.38,14.59,14.38Z"/>
          <path class="cls-15" d="M567.1,596.11s2.65-10.67,12.6-13.45c9.94-2.79,22.54-11.13,22.54-11.13,0,0-12.6,13.45-18.57,14.84-5.97,1.39-16.57,9.74-16.57,9.74Z"/>
          <path class="cls-15" d="M521.59,587.17s-5.05-15.67-17.45-20.82c-12.39-5.16-18.36-8.86-18.36-8.86,0,0,17.24,12.98,21.88,16.23,4.64,3.25,13.93,13.45,13.93,13.45Z"/>
          <path class="cls-15" d="M558.07,593.2s-9-3.05-10.81-12.65c-1.79-9.61-1.13-21.2-1.13-21.2,0,0,3.48,18.58,6.63,20.87,3.16,2.29,5.31,12.98,5.31,12.98Z"/>
          <path class="cls-15" d="M565.43,594.79c-.24-1.9,5.16-7.95,13.2-11.57,8.04-3.61,14.73,2.8,14.73,2.8,0,0-9.69-2.55-15.3.29-5.61,2.84-12.63,8.48-12.63,8.48Z"/>
          <path class="cls-15" d="M496.39,592.27s3.31-14.38,13.26-17.16c9.95-2.78,15.42-6.45,15.42-6.45,0,0-16.75,12.48-19.39,15.26-2.65,2.78-9.28,8.35-9.28,8.35Z"/>
          <path class="cls-15" d="M524.97,592.82s-1.04-14.68-10.14-19.4c-9.09-4.72-18.37-11.68-18.37-11.68,0,0,15.26,12.99,19.9,17.63,4.64,4.64,8.62,13.45,8.62,13.45Z"/>
          <path class="cls-15" d="M531.28,591.69s14.19-20.76,22.81-21.69c8.62-.92,13.26-2.32,13.26-2.32-20.31,9.04-30.69,24.03-33.03,25.12-3.77,1.77-3.04-1.12-3.04-1.12Z"/>
          <path class="cls-15" d="M526.23,589.03c0-1.85,11.28-12.52,12.6-17.16,1.33-4.64,7.3-25.97,7.3-25.97,0,0-13.93,27.83-15.92,32.47-1.99,4.64-3.98,10.67-3.98,10.67Z"/>
        </g>
        <g>
          <g>
            <path class="cls-8" d="M496.4,608.83c-4.36.42-8.62,1.32-13.02,1.45-8.65.26-16.84-2.45-24.63-5.09-1.7-.58-3.46-1.19-4.65-2.22-2.22-1.93-2.22-5.11-5.37-6.23-1.69-.6-3.97-.44-5.19-1.45-.93-.77-.81-1.95-.12-2.83.7-.88,1.86-1.52,2.99-2.13,3.82-2.08,7.65-4.16,11.47-6.24,3.81-2.07,7.67-4.17,12.12-5.48,10.76-3.17,24.1-.97,32.21,4.91,2.11,1.53,3.9,3.28,6.19,4.67,2.11,1.29,4.59,2.25,6.78,3.48,3.3,1.86,5.84,4.29,8.33,6.69,1.78,1.71,3.65,3.72,2.97,5.78-.45,1.37-1.99,2.47-3.78,3.1-1.79.63-3.82.86-5.82,1-6.81.46-13.71-.05-20.49.6Z"/>
            <path class="cls-14" d="M463.48,583.47c5.79-2.67,12.7-4.26,19.64-4.07,6.93.18,13.84,2.21,18.46,5.84-7.29-3.04-16.16-4.17-24.51-3.11-3.75,1.17-7.65,2.12-11.63,2.85,1.25-.53,2.49-1.06,3.74-1.59-3.57.65-7.13,1.31-10.7,1.96,2.24-1.14,4.77-1.98,7.44-2.48"/>
            <path class="cls-14" d="M518.89,598.28c1.51,1.9,2.29,4.54.06,6.05-1.44.98-3.63,1.11-5.64,1.19-10.11.4-20.23.81-30.34,1.21,10.39.76,20.89.82,31.29.19,2.14-.13,4.44-.33,6.03-1.34,1.54-.97,2.11-2.52,1.98-3.97-.29-3.36-3.79-6.17-7.69-8.14-3.9-1.97-8.36-3.36-12.07-5.5,6.26,2.79,12.77,5.77,16.38,10.31Z"/>
          </g>
          <g>
            <path class="cls-8" d="M423.92,603.48c-2.28.2-4.93.41-6.12,1.78-1.17,1.36-.13,3.22,1.67,4.18,1.8.96,4.14,1.25,6.38,1.51,8.94,1.03,17.98,2.07,27.02,1.63,6.28-.31,12.49-1.33,18.79-1.27,1.96.02,4.17.08,5.58-.88,1.82-1.23,1.07-3.52-.82-4.7-1.89-1.18-15.76-11.3-25.19-11.71-19.31-.85-25.03,9.26-27.31,9.46Z"/>
            <g>
              <path class="cls-13" d="M422.2,605.14c-1.35.57-2.7,1.56-2.31,2.62.43,1.18,2.56,1.52,4.3,1.63,3.28.21,6.57.43,9.85.64,4.04.26,8.09.53,12.15.44,3.46-.07,6.89-.39,10.32-.71,3.77-.35,7.54-.7,11.31-1.05,1.95-.18,3.94-.37,5.71-.98.43-.15.87-.32,1.34-.29,1.1.06,1.44,1.22.73,1.81-.71.6-1.92.73-3.03.77-3.55.12-7.11-.38-10.64-.11-3.71.28-7.22,1.39-10.92,1.72-2.9.26-5.84.04-8.75-.17-6.22-.47-12.43-.93-18.65-1.4-2.17-.16-4.64-.46-5.76-1.76-.9-1.05-.46-2.55.95-3.27,1.12-.57,2.6-.63,3.91-.95,3.45-.83,5.41-3.3,7.96-5.12,2.7-1.92,6.32-3.21,10.13-3.61,3.82-.39,7.81.1,11.19,1.4-2.54-.29-5.1-.57-7.66-.45-2.56.13-5.16.7-7.03,1.94-1.17.77-2,1.77-3.13,2.57-3.17,2.26-8.12,2.68-11.99,4.32Z"/>
              <path class="cls-14" d="M422.08,605c-.76.33-1.47.74-1.98,1.28-.25.27-.45.58-.5.91-.05.33.04.68.26.98.45.61,1.36.94,2.2,1.12.86.19,1.75.25,2.62.3l10.39.68c3.46.22,6.95.42,10.44.39,3.5-.04,6.97-.34,10.42-.66l10.35-.96c1.72-.17,3.46-.28,5.18-.59.85-.15,1.7-.37,2.48-.65.38-.13.76-.22,1.09-.15.32.06.56.29.66.54.1.26.07.54-.08.78-.15.23-.46.43-.81.56-.71.27-1.57.33-2.42.35-1.72.05-3.45-.05-5.19-.12-1.74-.07-3.5-.13-5.25,0-1.76.13-3.46.45-5.13.77-1.68.33-3.34.67-5.04.87-1.69.21-3.43.23-5.15.17-1.73-.06-3.45-.2-5.18-.33l-5.19-.39-10.38-.78c-1.72-.15-3.48-.19-5.11-.54-.8-.18-1.58-.43-2.16-.84-.58-.4-.94-.94-.96-1.52-.03-.57.22-1.15.72-1.6.49-.45,1.26-.72,2.07-.89.81-.17,1.68-.27,2.53-.49.84-.22,1.62-.54,2.33-.92,1.41-.76,2.52-1.73,3.64-2.66,1.11-.94,2.25-1.84,3.61-2.58,2.7-1.48,6.02-2.42,9.45-2.61,3.42-.2,6.92.32,9.94,1.47l.15-.31c-2.77-.31-5.61-.63-8.47-.4-1.42.12-2.83.38-4.12.82-1.3.44-2.45,1.11-3.33,1.89-.9.77-1.68,1.59-2.74,2.2-1.06.62-2.27,1.1-3.55,1.5-2.54.8-5.3,1.34-7.76,2.38,0,0,.18-.07.54-.21.36-.14.9-.33,1.63-.56.72-.22,1.63-.47,2.7-.76,1.07-.28,2.3-.6,3.62-1.04,1.31-.45,2.72-1.04,3.9-1.96,1.18-.9,2.18-2.14,3.97-2.93,1.75-.8,3.96-1.22,6.29-1.29,2.33-.07,4.77.19,7.29.49v.02c-2.41-.93-5.25-1.5-8.25-1.56-2.99-.06-6.13.44-8.95,1.51-1.41.54-2.75,1.21-3.93,2.01-1.19.8-2.22,1.73-3.32,2.62-1.1.88-2.31,1.75-3.82,2.31-.75.28-1.57.45-2.42.58-.84.14-1.74.29-2.5.65-1.54.73-2.07,2.33-1.08,3.48.49.57,1.28.98,2.13,1.23.85.26,1.76.4,2.67.49,3.63.31,7.3.57,11.01.86,3.71.28,7.44.58,11.22.84,1.89.12,3.81.18,5.72.05,1.92-.13,3.78-.48,5.61-.84,1.83-.36,3.66-.73,5.53-.89,1.87-.17,3.76-.11,5.66-.03,1.9.08,3.8.18,5.72.09.94-.06,2.01-.21,2.72-.76.37-.28.51-.67.47-1.03-.04-.36-.26-.74-.76-.95-.51-.21-1.12-.11-1.55.04-.44.15-.83.29-1.27.4-.86.23-1.76.38-2.67.5-1.83.22-3.68.37-5.51.55-3.66.35-7.28.7-10.85,1.04-3.56.33-7.09.55-10.56.49-3.46-.05-6.85-.27-10.14-.46-3.3-.2-6.5-.36-9.61-.57-.77-.08-1.55-.21-2.24-.49-.69-.26-1.26-.75-1.36-1.32-.11-.57.25-1.12.72-1.54.48-.42,1.06-.76,1.69-1.04Z"/>
            </g>
          </g>
          <g>
            <path class="cls-10" d="M564.14,617.21c-4.36.42-8.62,1.32-13.02,1.45-8.65.26-16.84-2.45-24.63-5.09-1.7-.58-3.46-1.19-4.65-2.22-2.22-1.93-2.22-5.11-5.37-6.23-1.69-.6-3.97-.44-5.19-1.45-.93-.77-.81-1.95-.12-2.83.7-.88,1.86-1.52,2.99-2.13,3.82-2.08,7.65-4.16,11.47-6.24,3.81-2.07,7.67-4.17,12.12-5.48,10.76-3.17,24.1-.97,32.21,4.91,2.11,1.53,3.9,3.28,6.19,4.67,2.11,1.29,4.59,2.25,6.78,3.48,3.3,1.86,5.84,4.29,8.33,6.69,1.78,1.71,3.65,3.72,2.97,5.78-.45,1.37-1.99,2.47-3.78,3.1-1.79.63-3.82.86-5.82,1-6.81.46-13.71-.05-20.49.6Z"/>
            <path class="cls-14" d="M531.22,591.85c5.79-2.67,12.7-4.26,19.64-4.07,6.93.18,13.84,2.21,18.46,5.84-7.29-3.04-16.16-4.17-24.51-3.11-3.75,1.17-7.65,2.12-11.63,2.85,1.25-.53,2.49-1.06,3.74-1.59-3.57.65-7.13,1.31-10.7,1.96,2.24-1.14,4.77-1.98,7.44-2.48"/>
            <path class="cls-14" d="M586.64,606.66c1.51,1.9,2.29,4.54.06,6.05-1.44.98-3.63,1.11-5.64,1.19-10.11.4-20.23.81-30.34,1.21,10.39.76,20.89.82,31.29.19,2.14-.13,4.44-.33,6.03-1.34,1.54-.97,2.11-2.52,1.98-3.97-.29-3.36-3.79-6.17-7.69-8.14-3.9-1.97-8.36-3.36-12.07-5.5,6.26,2.79,12.77,5.77,16.38,10.31Z"/>
          </g>
          <g>
            <path class="cls-8" d="M490.38,611.59c-2.28.2-4.93.41-6.12,1.78-1.17,1.36-.13,3.22,1.67,4.18,1.8.96,4.14,1.25,6.38,1.51,8.94,1.03,17.98,2.07,27.02,1.63,6.28-.31,12.49-1.33,18.79-1.27,1.96.02,4.17.08,5.58-.88,1.82-1.23,1.07-3.52-.82-4.7-1.89-1.18-15.76-11.3-25.19-11.71-19.31-.85-25.03,9.26-27.31,9.46Z"/>
            <g>
              <path class="cls-13" d="M488.66,613.25c-1.35.57-2.7,1.56-2.31,2.62.43,1.18,2.56,1.52,4.3,1.63,3.28.21,6.57.43,9.85.64,4.04.26,8.09.53,12.15.44,3.46-.07,6.89-.39,10.32-.71,3.77-.35,7.54-.7,11.31-1.05,1.95-.18,3.94-.37,5.71-.98.43-.15.87-.32,1.34-.29,1.1.06,1.44,1.22.73,1.81-.71.6-1.92.73-3.03.77-3.55.12-7.11-.38-10.64-.11-3.71.28-7.22,1.39-10.92,1.72-2.9.26-5.84.04-8.75-.17-6.22-.47-12.43-.93-18.65-1.4-2.17-.16-4.64-.46-5.76-1.76-.9-1.05-.46-2.55.95-3.27,1.12-.57,2.6-.63,3.91-.95,3.45-.83,5.41-3.3,7.96-5.12,2.7-1.92,6.32-3.21,10.13-3.61,3.82-.39,7.81.1,11.19,1.4-2.54-.29-5.1-.57-7.66-.45-2.56.13-5.16.7-7.03,1.94-1.17.77-2,1.77-3.13,2.57-3.17,2.26-8.12,2.68-11.99,4.32Z"/>
              <path class="cls-14" d="M488.54,613.11c-.76.33-1.47.74-1.98,1.28-.25.27-.45.58-.5.91-.05.33.04.68.26.98.45.61,1.36.94,2.2,1.12.86.19,1.75.25,2.62.3l10.39.68c3.46.22,6.95.42,10.44.39,3.5-.04,6.97-.34,10.42-.66l10.35-.96c1.72-.17,3.46-.28,5.18-.59.85-.15,1.7-.37,2.48-.65.38-.13.76-.22,1.09-.15.32.06.56.29.66.54.1.26.07.54-.08.78-.15.23-.46.43-.81.56-.71.27-1.57.33-2.42.35-1.72.05-3.45-.05-5.19-.12-1.74-.07-3.5-.13-5.25,0-1.76.13-3.46.45-5.13.77-1.68.33-3.34.67-5.04.87-1.69.21-3.43.23-5.15.17-1.73-.06-3.45-.2-5.18-.33l-5.19-.39-10.38-.78c-1.72-.15-3.48-.19-5.11-.54-.8-.18-1.58-.43-2.16-.84-.58-.4-.94-.94-.96-1.52-.03-.57.22-1.15.72-1.6.49-.45,1.26-.72,2.07-.89.81-.17,1.68-.27,2.53-.49.84-.22,1.62-.54,2.33-.92,1.41-.76,2.52-1.73,3.64-2.66,1.11-.94,2.25-1.84,3.61-2.58,2.7-1.48,6.02-2.42,9.45-2.61,3.42-.2,6.92.32,9.94,1.47l.15-.31c-2.77-.31-5.61-.63-8.47-.4-1.42.12-2.83.38-4.12.82-1.3.44-2.45,1.11-3.33,1.89-.9.77-1.68,1.59-2.74,2.2-1.06.62-2.27,1.1-3.55,1.5-2.54.8-5.3,1.34-7.76,2.38,0,0,.18-.07.54-.21.36-.14.9-.33,1.63-.56.72-.22,1.63-.47,2.7-.76,1.07-.28,2.3-.6,3.62-1.04,1.31-.45,2.72-1.04,3.9-1.96,1.18-.9,2.18-2.14,3.97-2.93,1.75-.8,3.96-1.22,6.29-1.29,2.33-.07,4.77.19,7.29.49v.02c-2.41-.93-5.25-1.5-8.25-1.56-2.99-.06-6.13.44-8.95,1.51-1.41.54-2.75,1.21-3.93,2.01-1.19.8-2.22,1.73-3.32,2.62-1.1.88-2.31,1.75-3.82,2.31-.75.28-1.57.45-2.42.58-.84.14-1.74.29-2.5.65-1.54.73-2.07,2.33-1.08,3.48.49.57,1.28.98,2.13,1.23.85.26,1.76.4,2.67.49,3.63.31,7.3.57,11.01.86,3.71.28,7.44.58,11.22.84,1.89.12,3.81.18,5.72.05,1.92-.13,3.78-.48,5.61-.84,1.83-.36,3.66-.73,5.53-.89,1.87-.17,3.76-.11,5.66-.03,1.9.08,3.8.18,5.72.09.94-.06,2.01-.21,2.72-.76.37-.28.51-.67.47-1.03-.04-.36-.26-.74-.76-.95-.51-.21-1.12-.11-1.55.04-.44.15-.83.29-1.27.4-.86.23-1.76.38-2.67.5-1.83.22-3.68.37-5.51.55-3.66.35-7.28.7-10.85,1.04-3.56.33-7.09.55-10.56.49-3.46-.05-6.85-.27-10.14-.46-3.3-.2-6.5-.36-9.61-.57-.77-.08-1.55-.21-2.24-.49-.69-.26-1.26-.75-1.36-1.32-.11-.57.25-1.12.72-1.54.48-.42,1.06-.76,1.69-1.04Z"/>
            </g>
          </g>
        </g>
      </g>
    </g>
  </g>
</svg>